<mxfile host="www.draw.io" modified="2019-11-29T01:29:27.462Z" agent="Mozilla/5.0 (Windows NT 6.1; Win64; x64) AppleWebKit/537.36 (KHTML, like Gecko) Chrome/77.0.3865.90 Safari/537.36" etag="v1F5M6B608oZuXNrOqlf" version="12.3.2" type="github" pages="1">
  <diagram id="rRLmYZ7PAJeVRb4J5bMO" name="第 1 页">
    <mxGraphModel dx="854" dy="478" grid="1" gridSize="10" guides="1" tooltips="1" connect="1" arrows="1" fold="1" page="1" pageScale="1" pageWidth="827" pageHeight="1169" math="0" shadow="0">
      <root>
        <mxCell id="0"/>
        <mxCell id="1" parent="0"/>
        <mxCell id="RRIOFwYLbPqxCO6cQfnc-1" value="" style="rounded=1;whiteSpace=wrap;html=1;dashed=1;" vertex="1" parent="1">
          <mxGeometry x="120" y="40" width="560" height="40" as="geometry"/>
        </mxCell>
        <mxCell id="RRIOFwYLbPqxCO6cQfnc-2" value="" style="rounded=1;whiteSpace=wrap;html=1;direction=south;dashed=1;" vertex="1" parent="1">
          <mxGeometry x="120" y="90" width="560" height="230" as="geometry"/>
        </mxCell>
        <mxCell id="RRIOFwYLbPqxCO6cQfnc-3" value="" style="rounded=1;whiteSpace=wrap;html=1;dashed=1;" vertex="1" parent="1">
          <mxGeometry x="120" y="330" width="560" height="70" as="geometry"/>
        </mxCell>
        <mxCell id="RRIOFwYLbPqxCO6cQfnc-4" value="" style="endArrow=none;dashed=1;html=1;" edge="1" parent="1" source="RRIOFwYLbPqxCO6cQfnc-2">
          <mxGeometry width="50" height="50" relative="1" as="geometry">
            <mxPoint x="170" y="140" as="sourcePoint"/>
            <mxPoint x="170" y="90" as="targetPoint"/>
            <Array as="points">
              <mxPoint x="170" y="320"/>
            </Array>
          </mxGeometry>
        </mxCell>
        <mxCell id="RRIOFwYLbPqxCO6cQfnc-6" value="" style="endArrow=none;dashed=1;html=1;exitX=0.088;exitY=1.029;exitDx=0;exitDy=0;exitPerimeter=0;" edge="1" parent="1" source="RRIOFwYLbPqxCO6cQfnc-3">
          <mxGeometry width="50" height="50" relative="1" as="geometry">
            <mxPoint x="170" y="390" as="sourcePoint"/>
            <mxPoint x="170" y="330" as="targetPoint"/>
          </mxGeometry>
        </mxCell>
      </root>
    </mxGraphModel>
  </diagram>
</mxfile>
